<svg xmlns="http://www.w3.org/2000/svg" width="26.855" height="26.855" viewBox="0 0 26.855 26.855"><defs><style>.a{fill:#3791d6;}</style></defs><g transform="translate(-70.3 -49.3)"><g transform="translate(70.3 49.3)"><path class="a" d="M57.727,71.155A13.427,13.427,0,1,1,71.155,57.727,13.443,13.443,0,0,1,57.727,71.155Zm0-25.844A12.417,12.417,0,1,0,70.144,57.727,12.426,12.426,0,0,0,57.727,45.311Z" transform="translate(-44.3 -44.3)"/><path class="a" d="M132.276,77.8h-6.962a.507.507,0,0,1-.513-.513V68.113a.513.513,0,0,1,1.027,0v8.663h6.449a.507.507,0,0,1,.513.513A.517.517,0,0,1,132.276,77.8Z" transform="translate(-111.886 -63.862)"/></g></g></svg>